<?xml version="1.0" encoding="utf-8"?>
<!DOCTYPE svg PUBLIC "-//W3C//NVDL SVG 1.2//EN" "https://www.w3.org/Graphics/SVG/1.2/rng/Tiny-1.2/Tiny-1.2.nvdl">
<svg version="1.2" baseProfile="tiny" xmlns="http://www.w3.org/2000/svg" xmlns:xlink="http://www.w3.org/1999/xlink"
  x="0px" y="0px" width="1200px" height="1200px" viewBox="0 0 12000 12000" preserveAspectRatio="xMidYMid meet">
<g id="background" fill="#4999ea" fill-rule="evenodd">
<path d="M5275 11945 L5270 11940 L5195 11940C5153 11940,5117 11940,5115 11940 C5112 11940,5094 11940,5075 11940 L5040 11940L5040 11940 L5030 11940C5024 11940,5009 11940,4997 11940 C4985 11940,4959 11935,4940 11930 C4921 11924,4902 11915,4898 11910 L4890 11900L4890 11900 4885 11895 L4880 11890 L4875 11890C4872 11890,4867 11890,4865 11890 L4860 11890L4860 11880 L4840 11880L4820 11880L4810 11880 L4805 11880C4802 11880,4797 11880,4795 11880 L4790 11880L4780 11880 4775 11885 L4772 11892 4770 11895 L4760 11900 L4756 11894C4754 11891,4730 11885,4703 11880 C4676 11875,4644 11869,4632 11865 L4610 11860L4610 11860 L4610 11855C4610 11852,4607 11850,4605 11850 C4602 11850,4600 11852,4600 11855 L4600 11860L4595 11855 L4590 11850 L4590 11844C4590 11840,4581 11836,4570 11834 L4550 11830L4550 11820 L4545 11820C4542 11820,4537 11820,4535 11820 L4530 11820L4520 11820 L4505 11820C4496 11820,4487 11820,4485 11820 C4482 11820,4477 11820,4475 11820 L4470 11820L4470 11820 L4457 11820C4450 11820,4430 11816,4412 11810 L4380 11800L4380 11800 L4380 11795C4380 11793,4372 11784,4364 11775 C4355 11767,4337 11760,4324 11760 L4300 11760L4295 11765 4290 11770 L4290 11770 L4284 11770C4281 11770,4260 11765,4237 11760 C4214 11755,4189 11744,4182 11735 L4170 11720L4170 11720 4165 11715 L4160 11710 L4152 11709C4148 11708,4140 11706,4135 11704 C4129 11701,4121 11700,4117 11700 L4110 11700L4105 11705 4100 11710 L4100 11710 L4055 11695L4010 11680L4000 11675 3997 11672 L3995 11665 3990 11660 L3990 11660 3985 11655 L3977 11652 3972 11647 L3965 11645 3960 11640 L3950 11640 L3935 11640L3920 11640L3920 11640 L3912 11641C3908 11641,3898 11641,3890 11640 C3881 11638,3867 11633,3857 11628 L3840 11620L3840 11620 L3825 11605L3810 11590L3805 11585 L3800 11580 L3785 11580C3776 11580,3767 11580,3765 11580 C3762 11580,3757 11580,3755 11580 L3750 11580L3750 11580 L3736 11580C3728 11580,3716 11572,3709 11564 C3702 11555,3681 11542,3662 11534 C3643 11526,3616 11520,3603 11520 C3589 11520,3569 11515,3559 11510 L3540 11500L3540 11490 L3540 11485C3540 11482,3540 11477,3540 11475 L3540 11470L3535 11465 L3527 11462 3522 11462 L3510 11460 L3497 11462 3492 11462 L3480 11460 L3474 11461C3471 11461,3458 11459,3444 11456 L3420 11450L3420 11440 L3420 11435C3420 11432,3420 11427,3420 11425 L3420 11420L3415 11415 3410 11410 L3410 11410 3405 11405 L3400 11400 L3392 11399C3388 11399,3379 11402,3372 11404 L3360 11410L3360 11410 L3330 11395L3300 11380L3300 11380 L3300 11365L3300 11350L3295 11345 L3290 11340 L3270 11340L3250 11340L3250 11340 L3245 11340C3242 11340,3237 11340,3234 11341 C3231 11341,3218 11339,3204 11336 L3180 11330L3180 11320 L3180 11315C3180 11312,3180 11307,3180 11305 L3180 11300L3175 11295 3170 11290 L3170 11290 3165 11285 L3160 11280 L3140 11280L3120 11280L3120 11280 L3115 11280C3112 11280,3106 11280,3102 11280 C3097 11280,3079 11266,3061 11250 C3043 11233,3020 11220,3010 11220 C2999 11220,2984 11213,2975 11205 L2960 11190L2950 11185 2947 11182 L2945 11175 L2940 11170 L2932 11165C2928 11162,2921 11160,2917 11160 L2910 11160L2910 11160 L2905 11160C2902 11160,2895 11160,2888 11160 C2882 11160,2880 11153,2883 11145 C2887 11134,2882 11130,2868 11130 C2857 11130,2823 11115,2794 11097 C2764 11079,2740 11062,2740 11058 C2740 11054,2719 11041,2694 11029 C2669 11017,2646 11001,2643 10993 C2640 10986,2631 10980,2623 10980 C2615 10980,2596 10967,2582 10952 C2567 10937,2546 10919,2535 10912 C2524 10906,2502 10895,2487 10889 C2472 10883,2460 10873,2460 10869 C2460 10864,2455 10860,2450 10860 C2444 10860,2431 10852,2420 10842 C2409 10833,2400 10819,2400 10812 C2400 10805,2391 10800,2380 10800 C2369 10800,2346 10786,2329 10770 C2313 10753,2297 10740,2294 10740 C2291 10740,2267 10723,2239 10702 C2212 10682,2190 10662,2190 10657 C2190 10653,2183 10650,2175 10650 C2166 10650,2160 10643,2160 10635 C2160 10626,2154 10620,2148 10620 C2142 10620,2105 10592,2066 10557 C2027 10523,1982 10483,1968 10467 C1953 10452,1939 10440,1936 10440 C1934 10440,1848 10357,1746 10255 C1643 10154,1559 10067,1560 10061 C1560 10056,1542 10037,1521 10018 C1499 9999,1459 9957,1431 9924 C1403 9891,1380 9859,1380 9852 C1380 9845,1373 9840,1366 9840 C1358 9840,1347 9827,1340 9811 C1333 9795,1306 9759,1279 9732 C1252 9704,1230 9679,1230 9675 C1230 9672,1223 9661,1215 9650 L1200 9630L1200 9630 L1200 9625C1200 9622,1200 9615,1200 9610 C1200 9604,1193 9600,1185 9600 L1170 9600L1170 9600 L1164 9592C1161 9589,1148 9571,1134 9553 C1121 9535,1110 9514,1110 9506 C1110 9498,1103 9489,1095 9486 C1086 9483,1080 9472,1080 9462 C1080 9452,1066 9433,1050 9421 C1033 9409,1020 9390,1020 9379 C1020 9368,1015 9360,1010 9360 C1005 9360,994 9347,986 9332 C978 9317,964 9290,954 9272 C945 9254,934 9240,929 9240 C925 9240,909 9219,895 9194 C880 9169,871 9145,874 9142 C877 9138,871 9130,860 9123 L840 9110L840 9110 L840 9105C840 9102,840 9093,840 9086 C840 9078,833 9067,825 9061 L810 9050L810 9050 L795 9025L780 9000L780 8990 L780 8985C780 8982,780 8977,780 8975 L780 8970L775 8965 770 8960 L770 8960 765 8955 L757 8952 755 8950 L750 8940 L745 8940C742 8940,736 8931,730 8920 C724 8910,720 8894,720 8885 L720 8870L720 8870 L720 8855L720 8840L715 8835 710 8830 L710 8830 705 8825 L700 8820 L695 8820C692 8820,687 8820,685 8820 L680 8820L670 8820 L660 8790L650 8760L650 8760 L650 8755C650 8752,652 8750,655 8750 C657 8750,660 8743,660 8735 L660 8720L660 8710 655 8705 L650 8700 L635 8700L620 8700L620 8700 L605 8670L590 8640L590 8640 595 8635 L600 8630 L600 8622C600 8618,599 8608,597 8600 C596 8591,586 8584,577 8582 L560 8580L560 8580 L550 8550L540 8520L530 8515 532 8512 L535 8505 L540 8500 L540 8495C540 8492,540 8485,540 8480 C540 8474,535 8470,530 8470 L520 8470L520 8470 L520 8465C520 8462,515 8460,509 8460 C503 8460,492 8445,485 8427 C477 8409,473 8391,475 8387 L480 8380L480 8380 L470 8355L460 8330L455 8325 L450 8320 L440 8305L430 8290L430 8290 L425 8283C422 8279,420 8272,420 8268 C420 8263,420 8257,420 8255 L420 8250L420 8240 L420 8235C420 8232,420 8227,420 8225 L420 8220L420 8220 L420 8215C420 8212,420 8207,420 8205 L420 8200L415 8195 410 8190 L410 8190 405 8185 L400 8180 L400 8175C400 8172,397 8170,395 8170 L390 8170L390 8160 L385 8160C382 8160,376 8151,370 8140 C364 8130,360 8112,360 8100 L360 8080L360 8080 L355 8050L350 8020L345 8015 340 8010 L340 8010 335 8005 L330 8000 L323 7995C319 7992,315 7990,313 7990 L310 7990L310 7990 L300 7955L290 7920L287 7907 292 7902 L295 7895 L300 7890 L300 7875L300 7860L295 7855 L290 7850 L290 7845C290 7842,288 7840,286 7840 C284 7840,280 7837,276 7835 L270 7830L270 7830 L264 7822C260 7818,254 7808,250 7799 C245 7791,240 7771,239 7754 C238 7738,237 7721,238 7717 L240 7710L240 7710 L240 7705C240 7702,240 7686,240 7670 C240 7650,233 7636,220 7630 L200 7620L200 7620 L193 7602C189 7592,185 7565,183 7542 L180 7500L180 7500 L180 7480L180 7460L175 7455 L170 7450 L170 7445C170 7442,170 7437,170 7435 L170 7430L170 7420 165 7415 L160 7410 L160 7405C160 7402,157 7400,155 7400 L150 7400L150 7390 L146 7390C144 7390,138 7373,132 7352 C125 7331,118 7295,115 7272 L110 7230L110 7230 L115 7202C118 7187,120 7171,120 7167 L120 7160L120 7150 115 7145 L110 7140 L110 7135C110 7132,110 7127,110 7125 L110 7120L105 7115 100 7110 L100 7110 L100 7105C100 7102,96 7100,92 7100 C87 7100,78 7085,72 7066 C65 7048,60 7017,60 6996 L60 6960L60 6960 L60 6915C60 6890,60 6867,60 6865 L60 6860L60 6860 L60 6845C60 6836,60 6827,60 6825 C60 6822,60 6817,60 6815 L60 6810L60 6810 L55 6770L50 6730L45 6725 L40 6720 L20 6720L0 6720L0 6720 L0 6350C0 6146,0 5977,0 5975 C0 5972,0 5814,0 5625 L0 5280L0 5280 L7 5280C11 5280,24 5279,35 5277 C53 5275,55 5266,57 5167 L60 5060L60 5060 L59 5032C59 5017,61 4993,64 4978 C66 4964,71 4940,74 4926 L80 4900L80 4900 L90 4895L100 4890L110 4890 L110 4885C110 4882,110 4877,110 4875 L110 4870L110 4870 115 4865 L120 4860 L120 4815L120 4770L120 4770 L118 4762C117 4758,117 4741,118 4725 C119 4708,125 4675,131 4652 C137 4628,146 4607,151 4604 L160 4600L160 4590 L165 4590C167 4590,170 4587,170 4585 L170 4580L180 4580 L180 4575C180 4572,180 4567,180 4565 L180 4560L180 4550 L180 4540C180 4534,180 4527,180 4525 C180 4522,180 4513,180 4505 L180 4490L180 4490 L179 4477C179 4470,181 4450,185 4432 C188 4415,197 4393,205 4385 L220 4370L220 4370 L223 4370C225 4370,229 4367,233 4363 C237 4359,240 4341,240 4323 C240 4305,237 4290,235 4290 L230 4290L230 4290 L235 4274C237 4265,240 4248,240 4236 C240 4224,247 4204,255 4192 L270 4170L270 4170 L272 4169C273 4168,280 4166,287 4163 C294 4160,300 4145,300 4129 C300 4113,297 4100,295 4100 L290 4100L290 4100 L295 4084C297 4075,300 4060,300 4051 C300 4042,306 4024,315 4012 L330 3990L330 3990 L333 3990C334 3990,341 3984,348 3978 C354 3971,360 3953,360 3938 L360 3910L360 3910 L370 3875L380 3840L385 3830 387 3827 L395 3825 400 3820 L400 3820 405 3815 L410 3810 L415 3802C417 3798,420 3791,420 3787 L420 3780L420 3780 L425 3740L430 3700L442 3697 447 3697 L455 3695 L457 3687 462 3682 L465 3675 470 3670 L470 3670 475 3665 L480 3660 L480 3640L480 3620L480 3620 L480 3615C480 3612,480 3601,480 3591 C480 3581,486 3566,495 3556 L510 3540L510 3540 L515 3540C517 3540,524 3540,530 3540 C535 3540,540 3528,540 3515 L540 3490L535 3485 530 3480 L530 3480 L545 3450L560 3420L560 3420 L575 3420L590 3420L595 3415 L600 3410 L600 3390L600 3370L595 3365 590 3360 L590 3360 L595 3353C597 3349,600 3338,600 3328 C600 3319,604 3308,610 3305 L620 3300L620 3300 L635 3300L650 3300L655 3295 L660 3290 L660 3270L660 3250L655 3245 650 3240 L650 3240 L660 3210L670 3180L680 3180 L685 3180C687 3180,692 3180,695 3180 L700 3180L705 3175 L710 3170 L715 3150L720 3130L720 3130 L720 3125C720 3122,720 3114,720 3106 C720 3099,726 3086,735 3076 L750 3060L755 3050 757 3047 L765 3045 L770 3040 L775 3032C777 3028,780 3021,780 3017 L780 3010L780 3010 L780 3004C780 3000,783 2992,787 2986 C790 2980,806 2965,820 2952 C840 2936,846 2923,842 2904 C838 2886,841 2880,851 2882 C859 2883,866 2874,868 2856 C869 2841,877 2826,885 2823 C893 2820,900 2810,900 2800 C900 2791,913 2770,930 2755 C946 2739,960 2720,960 2713 C960 2705,964 2700,970 2700 C975 2700,980 2693,980 2685 C980 2676,989 2661,1000 2650 C1011 2639,1020 2623,1020 2615 C1020 2607,1033 2590,1050 2578 C1066 2566,1080 2548,1080 2539 C1080 2529,1086 2519,1095 2516 C1103 2513,1110 2504,1110 2496 C1110 2487,1115 2475,1122 2467 C1129 2460,1139 2445,1145 2434 C1151 2423,1166 2410,1178 2405 C1191 2399,1200 2386,1200 2372 C1200 2359,1206 2346,1215 2343 C1223 2340,1230 2333,1230 2328 C1230 2323,1242 2305,1257 2287 C1272 2270,1294 2246,1305 2235 C1316 2224,1331 2202,1339 2187 C1347 2172,1361 2160,1371 2160 C1381 2160,1390 2153,1390 2145 C1390 2136,1393 2130,1398 2130 C1403 2130,1407 2124,1406 2116 C1405 2109,1438 2065,1480 2019 C1521 1973,1638 1851,1740 1747 C1841 1644,1928 1560,1933 1560 C1938 1560,1968 1534,2000 1502 C2031 1470,2074 1430,2094 1412 C2115 1394,2138 1380,2145 1380 C2153 1380,2160 1374,2160 1367 C2160 1360,2195 1330,2236 1300 C2278 1269,2321 1234,2333 1222 C2345 1210,2362 1200,2370 1200 C2379 1200,2396 1186,2408 1170 C2420 1153,2436 1140,2444 1140 C2451 1139,2460 1133,2463 1124 C2466 1116,2477 1109,2488 1109 C2498 1110,2513 1103,2520 1095 C2526 1086,2537 1080,2544 1080 C2551 1080,2567 1066,2580 1050 C2592 1033,2611 1020,2621 1020 C2631 1020,2640 1015,2640 1010 C2640 1006,2656 992,2675 980 C2695 969,2716 960,2723 960 C2730 960,2746 946,2758 930 C2770 913,2786 900,2794 900 C2801 900,2813 893,2820 885 C2826 876,2841 870,2851 870 C2862 870,2873 863,2876 855 C2879 846,2891 839,2903 839 C2915 839,2940 826,2958 809 C2977 793,2996 780,3001 780 L3010 780L3010 780 L3030 770L3050 760L3050 760 L3055 760C3057 760,3060 755,3060 749 C3060 743,3075 732,3095 724 L3130 710L3130 710 3135 715 L3140 720 L3145 720C3147 720,3156 720,3165 720 C3173 720,3180 711,3180 700 L3180 680L3180 680 L3192 670C3199 664,3212 660,3222 660 C3232 660,3240 655,3240 650 L3240 640L3250 645 3252 647 L3255 655 3260 660 L3270 660 L3285 655L3300 650L3300 640 L3297 627 3297 622 L3300 610 L3335 600L3370 590L3370 590 L3370 595C3370 597,3381 600,3395 600 C3413 600,3420 594,3420 580 L3420 560L3420 560 L3425 553C3427 549,3443 545,3460 543 L3490 540L3490 540 L3495 540C3497 540,3509 540,3520 540 C3531 540,3540 533,3540 525 L3540 510L3540 510 L3540 505C3540 503,3543 498,3548 495 C3553 492,3568 486,3582 480 C3596 475,3610 473,3613 475 L3620 480L3620 480 L3635 480L3650 480L3655 475 L3660 470 L3665 470C3667 470,3670 467,3670 465 L3670 460L3680 460 L3685 460C3687 460,3692 460,3695 460 L3700 460L3700 450 L3700 445C3700 442,3697 440,3695 440 L3690 440L3690 430 L3695 430C3697 430,3700 432,3700 435 L3700 440L3700 440 L3705 440C3707 440,3710 435,3710 430 C3710 424,3719 420,3730 420 L3750 420L3750 420 L3755 420C3757 420,3768 420,3778 420 C3788 420,3803 413,3813 405 L3830 390L3830 390 L3835 390C3837 390,3840 385,3840 380 C3840 375,3855 366,3875 360 L3910 350L3910 350 3915 355 L3920 360 L3932 360C3939 360,3955 356,3967 350 L3990 340L3995 335 L4000 330 L4005 323C4007 319,4010 315,4010 313 L4010 310L4010 310 L4042 303C4060 300,4080 293,4087 287 C4095 280,4100 281,4100 288 C4100 294,4102 300,4105 300 L4110 300L4110 300 L4117 300C4121 300,4135 298,4147 295 C4159 292,4170 285,4170 279 L4170 270L4170 270 L4175 270C4177 270,4180 265,4180 260 C4180 255,4196 247,4217 244 C4238 240,4260 233,4267 228 L4280 220L4290 225 4292 227 L4295 235 L4300 240 L4305 240C4307 240,4312 240,4315 240 C4317 240,4326 240,4335 240 L4350 240L4355 235 L4360 230 L4370 215L4380 200L4380 200 L4397 193C4407 189,4430 186,4450 185 C4469 185,4488 186,4492 187 L4500 190L4500 180 L4505 180C4507 180,4512 180,4515 180 L4520 180L4525 175 L4530 170 L4550 170L4570 170L4575 165 L4582 162 4587 157 L4595 155 L4600 150 L4605 150C4607 150,4610 147,4610 145 L4610 140L4620 140 L4630 134C4636 130,4665 124,4695 120 C4725 116,4752 114,4755 116 L4760 120L4760 120 L4805 120L4850 120L4855 115 L4860 110 L4875 100L4890 90L4890 90 L4900 84C4906 81,4925 74,4942 69 C4960 64,4996 60,5022 60 L5070 60L5070 60 L5165 60L5260 60L5265 55 L5270 50 L5275 25L5280 0L5280 0 L5625 0C5814 0,5972 0,5975 0 C5977 0,6146 0,6350 0 L6720 0L6720 0 L6719 7C6719 11,6721 22,6724 32 L6730 50L6735 55 6740 60 L6750 60 L6800 60C6827 60,6852 60,6855 60 C6857 60,6880 60,6905 60 L6950 60L6950 60 L6988 60C7009 59,7042 65,7061 71 C7079 77,7096 84,7097 86 L7100 90L7100 90 L7103 95C7105 97,7108 100,7110 100 C7113 101,7120 103,7127 105 L7140 110L7145 115 L7150 120 L7185 120C7204 120,7222 120,7225 120 L7230 120L7230 120 L7237 118C7241 117,7265 118,7289 119 C7314 121,7343 125,7354 130 C7365 134,7378 140,7382 143 L7390 150L7390 150 L7390 155C7390 157,7392 160,7395 160 L7400 160L7400 160 7405 165 L7410 170 L7430 170L7450 170L7455 175 L7460 180 L7475 180L7490 180L7490 180 L7490 182C7490 183,7514 185,7544 185 C7573 185,7600 188,7604 192 L7610 200L7620 205 7622 207 L7625 215 L7630 220 L7635 230C7639 236,7656 239,7673 237 C7690 234,7706 232,7707 231 L7710 230L7710 230 L7761 240C7789 245,7814 250,7816 250 C7818 250,7818 254,7817 258 C7816 263,7818 270,7822 273 L7830 280L7830 280 L7860 290L7890 300L7895 295 7900 290 L7900 290 L7940 300L7980 310L7980 310 L7987 325C7991 333,7998 340,8002 340 C8006 340,8012 340,8015 340 L8020 340L8020 340 L8050 350L8080 360L8080 360 L8107 362C8122 364,8140 369,8147 372 L8160 380L8160 380 L8160 386C8160 390,8162 394,8165 396 L8170 400L8175 405 8180 410 L8190 410 L8192 410C8193 411,8200 413,8207 415 L8220 420L8220 420 L8250 420C8268 420,8283 426,8286 435 C8289 443,8293 450,8296 450 L8300 450L8300 450 L8300 455C8300 457,8302 460,8305 460 L8310 460L8322 457 8327 462 L8335 465 L8340 470 L8345 470C8347 470,8352 470,8355 470 L8360 470L8365 475 L8370 480 L8385 480L8400 480L8400 480 L8419 483C8429 485,8442 490,8449 493 L8460 500L8460 510 L8460 515C8460 517,8460 522,8460 525 L8460 530L8465 535 L8470 540 L8485 540C8493 540,8502 540,8505 540 C8507 540,8510 537,8510 535 L8510 530L8510 530 L8545 545L8580 560L8580 560 L8580 567C8580 571,8582 578,8585 582 L8590 590L8595 595 8600 600 L8610 600 L8615 600C8617 600,8622 600,8625 600 L8630 600L8635 595 8640 590 L8640 590 L8670 605L8700 620L8700 620 L8700 640C8700 653,8706 660,8720 660 C8731 660,8742 660,8745 660 L8750 660L8755 655 8760 650 L8760 650 L8790 665L8820 680L8820 680 L8822 697C8824 706,8831 716,8840 717 C8848 719,8858 720,8862 720 L8870 720L8870 720 L8885 720C8894 720,8910 724,8920 730 C8931 736,8940 742,8940 745 L8940 750L8940 750 L8950 760L8960 770L8965 775 L8970 780 L8975 780C8977 780,8982 780,8985 780 L8990 780L9000 780 L9005 780C9007 780,9012 780,9015 780 L9020 780L9022 792 9022 797 L9025 805 9030 810 L9030 810 L9030 815C9030 817,9032 820,9035 820 L9040 820L9050 820 L9053 825C9055 827,9058 830,9060 830 C9063 831,9070 833,9077 835 L9090 840L9090 840 L9110 845C9121 848,9130 855,9130 860 C9130 865,9138 870,9148 870 C9159 870,9173 876,9180 885 C9186 893,9197 900,9203 900 C9209 900,9226 911,9241 926 C9256 940,9279 958,9291 965 C9304 973,9325 983,9337 989 C9349 994,9360 1004,9360 1009 C9360 1015,9368 1020,9378 1020 C9387 1020,9401 1025,9408 1032 C9414 1038,9420 1045,9420 1047 L9420 1050L9420 1050 L9420 1056C9420 1060,9422 1064,9425 1066 L9430 1070L9435 1075 L9440 1080 L9445 1080C9447 1080,9452 1080,9455 1080 L9460 1080L9470 1080 L9480 1095C9486 1103,9497 1110,9506 1110 C9514 1110,9536 1121,9554 1135 C9572 1148,9589 1160,9593 1160 L9600 1160L9600 1170 L9600 1175C9600 1177,9600 1182,9600 1185 L9600 1190L9605 1195 L9610 1200 L9620 1200C9625 1200,9630 1202,9630 1205 C9630 1207,9632 1210,9635 1210 C9637 1210,9640 1207,9640 1205 L9640 1200L9640 1200 L9671 1230C9689 1246,9705 1260,9706 1260 C9708 1260,9712 1260,9715 1260 L9720 1260L9720 1260 L9736 1280C9745 1291,9753 1300,9754 1300 C9755 1300,9759 1302,9763 1305 L9770 1310L9775 1315 L9780 1320 L9795 1331C9803 1337,9810 1344,9810 1346 C9810 1348,9812 1350,9815 1350 L9820 1350L9820 1350 L9844 1366C9858 1375,9867 1386,9863 1391 C9860 1397,9864 1399,9872 1398 C9879 1396,9900 1407,9918 1422 C9936 1437,9948 1454,9945 1459 C9942 1464,9944 1471,9949 1474 L9960 1480L9960 1480 L9975 1490L9990 1500L9990 1500 L10022 1528C10040 1544,10057 1556,10060 1556 C10062 1555,10149 1638,10252 1739 C10355 1841,10440 1929,10440 1935 C10440 1941,10449 1954,10460 1963 L10480 1980L10480 1980 L10475 1986C10472 1989,10472 1996,10475 2001 C10478 2006,10483 2010,10485 2010 L10490 2010L10490 2010 L10495 2020C10498 2025,10505 2027,10510 2025 C10514 2022,10521 2024,10524 2029 C10528 2035,10533 2040,10535 2040 L10540 2040L10540 2040 L10575 2080C10594 2102,10610 2123,10610 2126 C10610 2130,10626 2153,10647 2178 C10667 2204,10686 2227,10689 2230 C10692 2232,10718 2262,10747 2296 C10776 2330,10800 2365,10800 2374 C10800 2383,10811 2394,10824 2399 C10838 2405,10852 2420,10855 2434 C10859 2448,10865 2460,10869 2460 C10873 2460,10889 2486,10905 2518 C10920 2550,10942 2580,10954 2585 C10966 2591,10977 2607,10979 2624 C10982 2640,10989 2652,10994 2650 C10999 2649,11012 2665,11024 2686 C11035 2708,11057 2738,11072 2755 C11087 2771,11100 2789,11100 2795 C11100 2801,11107 2821,11116 2839 C11124 2856,11138 2873,11146 2876 C11153 2879,11160 2894,11160 2909 C11160 2926,11171 2947,11189 2965 C11206 2981,11219 2998,11219 3002 L11220 3010L11220 3010 L11220 3025L11220 3040L11225 3045 11230 3050 L11230 3050 L11230 3055C11230 3057,11232 3060,11235 3060 L11240 3060L11242 3052 11245 3050 L11250 3060 L11265 3090L11280 3120L11282 3132 11282 3137 L11280 3150 L11280 3155C11280 3159,11282 3165,11285 3170 L11290 3180L11300 3180 L11305 3180C11307 3180,11312 3180,11315 3180 L11320 3180L11330 3180 L11340 3210L11350 3240L11350 3240 L11345 3250L11340 3260L11340 3260 L11350 3280L11360 3300L11360 3300 L11365 3300C11367 3300,11373 3300,11378 3300 C11382 3300,11389 3302,11393 3305 L11400 3310L11400 3310 L11400 3315C11400 3317,11400 3326,11400 3333 C11400 3340,11402 3349,11405 3353 L11410 3360L11410 3360 11405 3365 L11400 3370 L11400 3385L11400 3400L11405 3405 L11410 3410 L11412 3410C11413 3411,11420 3413,11427 3415 L11440 3420L11440 3420 L11450 3450L11460 3480L11462 3492 11462 3497 L11460 3510 L11460 3520 L11475 3530L11490 3540L11490 3540 L11504 3557C11511 3567,11519 3582,11520 3590 C11521 3598,11521 3608,11521 3612 L11520 3620L11520 3620 L11520 3625C11520 3627,11520 3633,11520 3638 C11520 3642,11522 3649,11525 3653 L11530 3660L11535 3665 11540 3670 L11540 3670 11545 3675 L11550 3680 L11550 3686C11550 3690,11552 3694,11555 3696 L11560 3700L11560 3700 L11570 3705C11575 3709,11580 3720,11580 3730 C11580 3741,11580 3752,11580 3755 L11580 3760L11580 3760 L11580 3780L11580 3800L11580 3800 L11580 3805C11580 3807,11582 3810,11585 3810 L11590 3810L11595 3815 L11600 3820 L11600 3825C11600 3827,11602 3830,11605 3830 L11610 3830L11610 3840 L11630 3880L11650 3920L11650 3920 11645 3925 L11640 3930 L11640 3935C11640 3937,11640 3943,11640 3948 C11640 3952,11642 3959,11645 3963 L11650 3970L11650 3970 L11650 3985C11650 3993,11652 4000,11655 4000 C11657 4000,11662 4000,11665 4000 L11670 4000L11682 3997 11685 4000 L11690 4010 L11695 4037C11699 4052,11703 4070,11705 4077 C11707 4084,11711 4090,11714 4090 L11720 4090L11715 4100 11712 4102 L11705 4105 L11702 4112 11702 4117 L11700 4130 L11700 4140 L11700 4143C11700 4145,11702 4149,11705 4153 L11710 4160L11715 4165 L11720 4170 L11725 4170C11727 4170,11732 4170,11735 4170 L11740 4170L11740 4180 L11755 4235L11770 4290L11770 4290 11765 4295 L11760 4300 L11760 4305C11760 4307,11760 4312,11760 4315 L11760 4320L11760 4330 L11760 4340 L11775 4355L11790 4370L11790 4370 L11805 4399C11813 4415,11820 4438,11820 4449 C11820 4460,11820 4476,11820 4485 L11820 4500L11820 4500 L11826 4542C11829 4565,11834 4588,11836 4592 C11839 4596,11843 4600,11845 4600 L11850 4600L11850 4600 L11865 4634C11873 4653,11880 4682,11880 4698 C11880 4715,11882 4735,11885 4744 L11890 4760L11890 4760 11885 4765 L11880 4770 L11883 4817C11885 4843,11890 4872,11893 4882 L11900 4900L11900 4900 L11915 4912C11923 4919,11932 4947,11935 4975 C11938 5002,11940 5030,11940 5037 L11940 5050L11940 5050 L11940 5160C11940 5220,11942 5270,11945 5270 C11947 5270,11952 5270,11955 5270 L11960 5270L11965 5275 L11970 5280 L11985 5280L12000 5280L12000 5280 L12000 5625C12000 5814,12000 5972,12000 5975 C12000 5977,12000 6146,12000 6350 L12000 6720L12000 6720 L11980 6720L11960 6720L11955 6725 L11950 6730 L11944 6777C11941 6803,11939 6828,11939 6832 C11939 6836,11940 6860,11940 6885 L11940 6930L11940 6930 L11936 6992C11933 7026,11927 7066,11922 7080 C11916 7093,11909 7108,11906 7112 L11900 7120L11900 7120 L11890 7145C11884 7159,11880 7180,11880 7190 C11880 7201,11880 7216,11880 7225 L11880 7240L11880 7240 L11883 7245C11885 7247,11883 7272,11879 7300 C11874 7328,11868 7359,11865 7370 L11860 7390L11860 7390 L11850 7405L11840 7420L11835 7425 L11830 7430 L11830 7450L11830 7470L11825 7475 L11820 7480 L11820 7485C11820 7487,11820 7492,11820 7495 L11820 7500L11820 7510 L11816 7549C11813 7570,11809 7593,11806 7599 L11800 7610L11800 7620 L11795 7620C11792 7620,11787 7620,11785 7620 L11780 7620L11775 7625 L11770 7630 L11765 7670L11760 7710L11760 7710 L11764 7717C11766 7722,11763 7746,11758 7772 C11752 7798,11746 7820,11744 7820 C11741 7820,11737 7820,11735 7820 L11730 7820L11727 7827 11722 7832 L11715 7835 L11710 7840 L11710 7845C11710 7847,11710 7852,11710 7855 L11710 7860L11705 7865 L11700 7870 L11700 7875C11700 7877,11700 7882,11700 7885 L11700 7890L11705 7895 L11710 7902 11712 7907 L11710 7920 L11700 7957C11695 7977,11686 7996,11680 7998 C11674 8000,11672 8005,11675 8010 C11678 8015,11678 8020,11675 8020 L11670 8020L11670 8020 L11670 8015C11670 8012,11665 8010,11660 8010 C11654 8010,11650 8012,11650 8015 L11650 8020L11650 8020 L11645 8050L11640 8080L11640 8080 L11644 8087C11646 8091,11642 8108,11635 8125 C11628 8141,11619 8158,11616 8162 L11610 8170L11610 8170 L11603 8175C11599 8177,11595 8180,11593 8180 C11591 8180,11590 8182,11590 8185 L11590 8190L11585 8195 L11580 8200 L11580 8205C11580 8207,11580 8212,11580 8215 L11580 8220L11580 8230 L11575 8262C11573 8280,11571 8296,11570 8297 L11570 8300L11557 8302 11552 8302 L11545 8305 L11540 8310 L11539 8312C11538 8313,11536 8320,11534 8327 L11530 8340L11525 8345 L11520 8350 L11520 8365L11520 8380L11520 8380 L11524 8387C11526 8391,11522 8408,11514 8425 C11507 8441,11501 8456,11500 8457 L11500 8460L11500 8460 L11493 8460C11489 8460,11485 8462,11483 8465 L11480 8470L11475 8475 L11470 8480 L11465 8480C11462 8480,11460 8486,11460 8495 C11460 8503,11462 8510,11465 8510 L11470 8510L11470 8510 L11460 8545L11450 8580L11440 8580 L11435 8580C11432 8580,11427 8580,11425 8580 L11420 8580L11415 8575 11415 8575 L11410 8580 L11404 8592C11402 8599,11399 8610,11399 8617 L11400 8630L11400 8630 L11401 8637C11401 8641,11401 8651,11400 8660 C11399 8668,11397 8680,11394 8687 L11390 8700L11390 8700 L11377 8700C11369 8700,11358 8705,11352 8712 C11345 8718,11340 8729,11340 8737 C11340 8744,11342 8750,11345 8750 L11350 8750L11350 8750 L11340 8785L11330 8820L11317 8822 11312 8817 L11310 8810 L11303 8810C11299 8810,11295 8812,11293 8815 L11290 8820L11290 8820 11285 8825 L11280 8830 L11280 8850L11280 8870L11280 8870 L11280 8885C11280 8894,11275 8910,11269 8920 C11263 8931,11257 8940,11254 8940 L11250 8940L11245 8950 11242 8952 L11235 8955 L11232 8962 11227 8967 L11225 8975 L11220 8980 L11220 8985C11220 8987,11220 8992,11220 8995 L11220 9000L11220 9010 L11190 9041C11173 9059,11160 9083,11160 9095 C11160 9107,11153 9120,11145 9123 C11136 9126,11130 9137,11130 9148 C11130 9158,11123 9173,11115 9180 C11106 9186,11100 9197,11100 9204 C11100 9210,11087 9229,11072 9245 C11057 9261,11035 9293,11024 9315 C11013 9337,10999 9358,10992 9362 C10985 9367,10980 9376,10980 9383 C10980 9390,10969 9406,10955 9419 C10942 9431,10910 9477,10884 9520 C10858 9563,10828 9600,10818 9603 C10808 9605,10800 9615,10800 9625 C10800 9634,10785 9659,10767 9679 C10749 9700,10723 9730,10708 9748 C10694 9765,10679 9786,10676 9794 C10673 9803,10664 9810,10656 9810 C10648 9810,10634 9826,10624 9846 C10615 9866,10593 9898,10577 9916 C10560 9934,10540 9950,10533 9950 C10526 9950,10520 9955,10520 9963 C10520 9970,10496 10002,10467 10034 C10438 10066,10386 10120,10352 10154 C10318 10188,10290 10221,10290 10228 C10290 10234,10284 10238,10277 10237 C10270 10236,10266 10240,10267 10247 C10268 10254,10267 10260,10265 10260 C10262 10260,10257 10260,10255 10260 L10250 10260L10250 10260 L10220 10286C10203 10301,10190 10315,10190 10316 C10190 10318,10187 10320,10185 10320 C10182 10320,10180 10321,10180 10323 C10180 10325,10177 10329,10175 10333 L10170 10340L10170 10340 L10111 10392C10079 10421,10052 10445,10050 10445 C10049 10445,10046 10450,10043 10457 C10040 10464,10036 10470,10034 10470 L10030 10470L10030 10470 L10007 10482C9995 10489,9983 10495,9982 10495 C9981 10496,9980 10499,9980 10503 L9980 10510L9980 10510 L9980 10515C9980 10518,9972 10519,9962 10517 C9951 10516,9946 10520,9948 10529 C9949 10536,9936 10558,9918 10576 C9900 10594,9878 10610,9868 10610 C9859 10610,9848 10614,9845 10620 L9840 10630L9840 10630 L9825 10645L9810 10660L9810 10660 L9737 10717C9697 10748,9659 10779,9651 10787 C9644 10794,9629 10800,9619 10800 C9608 10800,9600 10806,9600 10814 C9600 10821,9582 10842,9561 10859 C9539 10876,9515 10890,9507 10890 C9499 10890,9486 10896,9480 10905 C9473 10913,9462 10920,9455 10920 C9449 10920,9433 10933,9421 10950 C9409 10966,9393 10980,9385 10980 C9377 10980,9356 10993,9338 11010 C9320 11026,9298 11040,9290 11040 C9281 11040,9265 11050,9253 11063 C9241 11075,9206 11098,9176 11114 C9145 11129,9120 11146,9120 11151 C9120 11156,9109 11160,9097 11160 C9085 11160,9059 11173,9041 11190 C9022 11206,9000 11220,8992 11220 C8984 11220,8962 11233,8943 11250 C8924 11266,8904 11280,8899 11280 C8894 11280,8887 11280,8885 11280 L8880 11280L8880 11280 L8854 11280C8840 11280,8827 11285,8824 11292 C8822 11299,8819 11308,8819 11312 L8820 11320L8820 11320 L8790 11330L8760 11340L8760 11340 L8739 11340C8726 11340,8721 11344,8726 11351 C8730 11359,8727 11361,8716 11357 C8707 11353,8700 11354,8700 11360 C8700 11365,8700 11372,8700 11375 L8700 11380L8700 11380 L8670 11395L8640 11410L8640 11410 L8636 11405C8634 11402,8630 11400,8626 11400 L8620 11400L8610 11400 L8600 11400 L8590 11420L8580 11440L8580 11440 L8550 11455L8520 11470L8520 11470 L8520 11465C8520 11462,8509 11460,8496 11460 C8483 11460,8470 11463,8466 11466 C8463 11470,8460 11474,8460 11476 L8460 11480L8460 11480 L8460 11488C8460 11492,8447 11502,8432 11510 C8417 11517,8401 11525,8397 11527 L8390 11530L8390 11530 L8382 11525C8378 11522,8371 11520,8367 11520 L8360 11520L8355 11525 L8350 11530 L8343 11530C8339 11530,8335 11532,8333 11535 L8330 11540L8330 11540 L8315 11540C8307 11540,8295 11549,8290 11560 C8284 11571,8274 11580,8269 11580 C8264 11580,8257 11580,8255 11580 L8250 11580L8250 11580 L8230 11580L8210 11580L8200 11580 8195 11585 L8187 11587 8182 11592 L8175 11595 L8170 11600 L8170 11603C8170 11605,8167 11609,8165 11613 L8160 11620L8160 11620 L8132 11630C8117 11636,8099 11640,8092 11640 L8080 11640L8080 11640 L8045 11650L8010 11660L8005 11665 L8005 11672 8000 11675 L7990 11680 L7977 11689C7970 11694,7953 11699,7939 11700 C7926 11702,7911 11702,7907 11701 L7900 11700L7900 11700 L7870 11703C7853 11705,7837 11709,7835 11713 L7830 11720L7825 11725 L7825 11732 7820 11735 L7810 11740 L7791 11749C7781 11754,7762 11759,7749 11760 C7735 11761,7721 11761,7717 11761 L7710 11760L7710 11760 L7675 11760L7640 11760L7635 11765 L7630 11770 L7629 11772C7628 11773,7626 11780,7624 11787 L7620 11800L7620 11800 L7570 11810L7520 11820L7520 11820 L7505 11820C7496 11820,7487 11820,7485 11820 C7482 11820,7477 11820,7475 11820 L7470 11820L7460 11820 7455 11825 L7450 11830 L7435 11830L7420 11830L7415 11835 L7407 11837 7402 11842 L7395 11845 L7395 11852 7390 11855 L7380 11860 L7352 11869C7337 11874,7307 11879,7285 11880 C7263 11881,7241 11882,7237 11881 L7230 11880L7230 11880 L7189 11880C7166 11880,7138 11885,7126 11891 C7114 11897,7103 11904,7102 11906 L7100 11910L7100 11910 L7067 11924C7049 11932,7020 11938,7002 11939 C6984 11939,6961 11940,6950 11940 L6930 11940L6930 11940 L6855 11940L6780 11940L6770 11940 6760 11940 L6750 11940 L6735 11944C6726 11947,6720 11958,6720 11969 C6720 11980,6720 11992,6720 11995 L6720 12000L6720 12000 L6350 12000C6146 12000,5977 12000,5975 12000 C5972 12000,5814 12000,5625 12000 L5280 12000L5280 12000 L5280 11985C5280 11976,5280 11967,5280 11965 C5280 11962,5280 11957,5280 11955 L5280 11950M2908 7245 C2902 7237,2859 7118,2813 6982 C2708 6675,2636 6466,2525 6145 C2423 5850,2257 5371,2191 5179 C2130 5001,2125 4994,2025 4974 C1981 4965,1939 4953,1931 4947 C1924 4941,1920 4921,1921 4900 L1925 4865 2372 4862 L2820 4859 2820 4904 C2820 4929,2818 4950,2817 4950 C2765 4960,2625 4979,2599 4979 C2579 4979,2559 4984,2554 4989 C2549 4994,2533 4999,2520 5001 C2483 5006,2488 5038,2548 5210 C2576 5289,2682 5600,2783 5900 C2885 6199,2977 6469,2987 6500 C2998 6530,3010 6571,3013 6592 C3027 6664,3042 6642,3124 6432 C3153 6356,3212 6207,3254 6100 C3369 5811,3556 5335,3644 5110 C3652 5090,3660 5067,3663 5057 C3667 5044,3679 5040,3708 5040 C3753 5039,3755 5042,3823 5225 C3886 5391,4034 5780,4190 6190 C4263 6379,4327 6554,4332 6577 C4352 6657,4370 6631,4434 6430 C4449 6383,4496 6237,4539 6105 C4582 5973,4659 5736,4710 5580 C4760 5423,4822 5235,4846 5162 C4870 5088,4890 5019,4890 5008 C4890 4990,4885 4988,4855 4994 C4836 4997,4819 4996,4816 4991 C4813 4986,4773 4979,4727 4975 C4682 4972,4618 4963,4585 4957 C4534 4946,4524 4941,4521 4921 C4519 4908,4526 4889,4535 4879 C4552 4860,4571 4860,4921 4860 L5289 4859 5305 4884 C5314 4897,5320 4916,5318 4926 C5314 4947,5230 4978,5177 4979 C5150 4979,5132 4986,5117 5003 C5103 5018,5063 5121,5016 5261 C4972 5389,4887 5639,4827 5815 C4767 5991,4712 6153,4705 6175 C4697 6197,4634 6381,4565 6585 C4495 6788,4416 7018,4390 7095 C4364 7173,4340 7241,4336 7248 C4323 7268,4230 7260,4230 7239 C4230 7230,4106 6903,3914 6405 C3861 6267,3810 6132,3800 6105 C3789 6077,3758 5994,3729 5920 C3700 5845,3668 5762,3659 5735 C3638 5676,3626 5669,3612 5707 C3571 5816,3535 5906,3410 6225 C3332 6423,3212 6729,3143 6905 C3075 7081,3015 7230,3009 7237 C2994 7257,2922 7262,2908 7245 M5677 7222 C5422 7215,5414 7214,5412 7194 C5410 7182,5413 7162,5418 7149 C5426 7126,5436 7123,5555 7107 C5625 7097,5691 7084,5701 7079 C5719 7069,5720 7034,5717 6046 C5715 5096,5713 5022,5697 5006 C5686 4995,5651 4985,5595 4978 C5421 4957,5380 4936,5413 4886 L5430 4860 6012 4860 C6611 4860,6740 4865,6915 4900 C7309 4980,7566 5185,7684 5517 C7741 5676,7763 5826,7762 6040 C7761 6427,7666 6708,7465 6918 C7329 7061,7116 7164,6872 7204 C6758 7223,6072 7233,5677 7222 M6145 7064 C6087 7060,6068 7055,6062 7042 C6058 7032,6057 6575,6060 6025 L6065 5025 6255 5021 C6450 5018,6609 5030,6715 5056 C7018 5131,7234 5318,7329 5590 C7448 5930,7408 6469,7243 6742 C7187 6837,7084 6931,6986 6979 C6845 7049,6786 7059,6485 7065 C6339 7067,6186 7067,6145 7064 M8025 7223 C8018 7214,8018 7174,8026 7155 C8033 7136,8075 7125,8205 7109 C8260 7102,8309 7092,8315 7087 C8328 7075,8332 5054,8318 5018 C8309 4995,8301 4991,8246 4985 C8165 4977,8070 4959,8042 4949 C8017 4939,8011 4892,8032 4871 C8040 4863,8163 4860,8519 4860 C8934 4860,8998 4862,9017 4875 C9043 4893,9046 4922,9025 4939 C9012 4949,8930 4963,8750 4986 C8723 4989,8699 4999,8687 5013 C8668 5034,8668 5062,8666 6052 C8665 7061,8665 7069,8685 7074 C8720 7083,9228 7080,9425 7069 C9662 7056,9665 7054,9696 6949 C9708 6908,9733 6800,9752 6710 L9786 6545 9843 6542 L9900 6539 9899 6592 C9899 6683,9870 7210,9865 7220 C9859 7231,8032 7233,8025 7223 " />
</g>
<g id="wdl" fill="#feffff" fill-rule="evenodd">
<path d="M2908 7245 C2902 7237,2859 7118,2813 6982 C2708 6675,2636 6466,2525 6145 C2423 5850,2257 5371,2191 5179 C2130 5001,2125 4994,2025 4974 C1981 4965,1939 4953,1931 4947 C1924 4941,1920 4921,1921 4900 L1925 4865 2372 4862 L2820 4859 2820 4904 C2820 4929,2818 4950,2817 4950 C2765 4960,2625 4979,2599 4979 C2579 4979,2559 4984,2554 4989 C2549 4994,2533 4999,2520 5001 C2483 5006,2488 5038,2548 5210 C2576 5289,2682 5600,2783 5900 C2885 6199,2977 6469,2987 6500 C2998 6530,3010 6571,3013 6592 C3027 6664,3042 6642,3124 6432 C3153 6356,3212 6207,3254 6100 C3369 5811,3556 5335,3644 5110 C3652 5090,3660 5067,3663 5057 C3667 5044,3679 5040,3708 5040 C3753 5039,3755 5042,3823 5225 C3886 5391,4034 5780,4190 6190 C4263 6379,4327 6554,4332 6577 C4352 6657,4370 6631,4434 6430 C4449 6383,4496 6237,4539 6105 C4582 5973,4659 5736,4710 5580 C4760 5423,4822 5235,4846 5162 C4870 5088,4890 5019,4890 5008 C4890 4990,4885 4988,4855 4994 C4836 4997,4819 4996,4816 4991 C4813 4986,4773 4979,4727 4975 C4682 4972,4618 4963,4585 4957 C4534 4946,4524 4941,4521 4921 C4519 4908,4526 4889,4535 4879 C4552 4860,4571 4860,4921 4860 L5289 4859 5305 4884 C5314 4897,5320 4916,5318 4926 C5314 4947,5230 4978,5177 4979 C5150 4979,5132 4986,5117 5003 C5103 5018,5063 5121,5016 5261 C4972 5389,4887 5639,4827 5815 C4767 5991,4712 6153,4705 6175 C4697 6197,4634 6381,4565 6585 C4495 6788,4416 7018,4390 7095 C4364 7173,4340 7241,4336 7248 C4323 7268,4230 7260,4230 7239 C4230 7230,4106 6903,3914 6405 C3861 6267,3810 6132,3800 6105 C3789 6077,3758 5994,3729 5920 C3700 5845,3668 5762,3659 5735 C3638 5676,3626 5669,3612 5707 C3571 5816,3535 5906,3410 6225 C3332 6423,3212 6729,3143 6905 C3075 7081,3015 7230,3009 7237 C2994 7257,2922 7262,2908 7245 " />
<path d="M5677 7222 C5422 7215,5414 7214,5412 7194 C5410 7182,5413 7162,5418 7149 C5426 7126,5436 7123,5555 7107 C5625 7097,5691 7084,5701 7079 C5719 7069,5720 7034,5717 6046 C5715 5096,5713 5022,5697 5006 C5686 4995,5651 4985,5595 4978 C5421 4957,5380 4936,5413 4886 L5430 4860 6012 4860 C6611 4860,6740 4865,6915 4900 C7309 4980,7566 5185,7684 5517 C7741 5676,7763 5826,7762 6040 C7761 6427,7666 6708,7465 6918 C7329 7061,7116 7164,6872 7204 C6758 7223,6072 7233,5677 7222 M6145 7064 C6087 7060,6068 7055,6062 7042 C6058 7032,6057 6575,6060 6025 L6065 5025 6255 5021 C6450 5018,6609 5030,6715 5056 C7018 5131,7234 5318,7329 5590 C7448 5930,7408 6469,7243 6742 C7187 6837,7084 6931,6986 6979 C6845 7049,6786 7059,6485 7065 C6339 7067,6186 7067,6145 7064 " />
<path d="M8025 7223 C8018 7214,8018 7174,8026 7155 C8033 7136,8075 7125,8205 7109 C8260 7102,8309 7092,8315 7087 C8328 7075,8332 5054,8318 5018 C8309 4995,8301 4991,8246 4985 C8165 4977,8070 4959,8042 4949 C8017 4939,8011 4892,8032 4871 C8040 4863,8163 4860,8519 4860 C8934 4860,8998 4862,9017 4875 C9043 4893,9046 4922,9025 4939 C9012 4949,8930 4963,8750 4986 C8723 4989,8699 4999,8687 5013 C8668 5034,8668 5062,8666 6052 C8665 7061,8665 7069,8685 7074 C8720 7083,9228 7080,9425 7069 C9662 7056,9665 7054,9696 6949 C9708 6908,9733 6800,9752 6710 L9786 6545 9843 6542 L9900 6539 9899 6592 C9899 6683,9870 7210,9865 7220 C9859 7231,8032 7233,8025 7223 " />
</g>
</svg>
