<?xml version="1.0" encoding="utf-8"?>
<!DOCTYPE svg PUBLIC "-//W3C//DTD SVG 1.1//EN" "http://www.w3.org/Graphics/SVG/1.1/DTD/svg11.dtd">
<svg version="1.1" xmlns="http://www.w3.org/2000/svg" xmlns:xlink="http://www.w3.org/1999/xlink" x="0px" y="0px" width="800px" height="800px" viewBox="0 0 8000 8000" preserveAspectRatio="xMidYMid meet">
<g id="layer101" fill="#234b76" fill-rule="evenodd">
</g>
<g id="layer102" fill="#4898e9" fill-rule="evenodd">
<path d="M3490 7970 L3502 7965C3509 7963,3507 7961,3497 7960 C3487 7960,3480 7962,3480 7965 L3480 7970L3480 7970 L3462 7969C3452 7969,3411 7964,3370 7958 C3328 7952,3275 7943,3252 7938 L3210 7930L3220 7930 L3220 7925C3220 7922,3217 7920,3215 7920 L3210 7920L3210 7930 L3177 7924C3159 7921,3124 7914,3100 7908 C3075 7903,3037 7893,3015 7888 C2993 7882,2963 7873,2950 7869 C2936 7864,2917 7858,2907 7855 L2890 7850L2890 7850 L2896 7845C2900 7842,2898 7840,2891 7840 C2885 7840,2880 7842,2880 7845 L2880 7850L2880 7850 L2874 7850C2871 7850,2809 7830,2737 7805 C2664 7781,2590 7754,2572 7745 L2540 7730L2540 7720 L2535 7720C2532 7720,2527 7720,2525 7720 L2520 7720L2520 7730 L2472 7709C2446 7697,2409 7681,2390 7673 C2370 7666,2333 7648,2307 7634 L2260 7610L2255 7605 2255 7605 L2250 7610 L2225 7595L2200 7580L2200 7580 L2200 7576C2200 7574,2197 7570,2193 7566 C2189 7563,2182 7560,2178 7560 C2173 7560,2170 7562,2170 7565 L2170 7570L2170 7570 L2135 7550L2100 7530L2110 7530 L2110 7525C2110 7522,2107 7520,2105 7520 L2100 7520L2100 7530 L2095 7530C2092 7530,2089 7528,2089 7527 C2089 7526,2060 7508,2024 7487 L1960 7450L1955 7445 L1950 7440 L1943 7440C1940 7440,1921 7430,1901 7418 C1881 7406,1824 7369,1775 7336 C1725 7303,1649 7249,1605 7215 C1561 7182,1500 7135,1470 7111 C1439 7086,1379 7035,1335 6996 C1291 6956,1216 6886,1169 6840 C1122 6793,1043 6709,993 6653 C944 6598,863 6499,813 6433 C763 6368,691 6266,652 6208 C613 6149,550 6045,511 5978 C472 5910,438 5847,435 5837 L430 5820L430 5820 L436 5815C440 5812,441 5810,438 5810 C435 5810,430 5807,426 5805 L420 5800L420 5800 L405 5775L390 5750L390 5750 L396 5745C400 5742,400 5737,396 5733 C393 5729,390 5729,390 5733 L390 5740L390 5740 L383 5727C380 5720,369 5699,358 5680 C348 5660,324 5607,305 5562 L270 5480L275 5475 275 5475 L270 5470 L258 5442C252 5427,234 5377,218 5332 L190 5250L195 5245 195 5245 L190 5240 L183 5227C180 5220,171 5195,163 5172 C156 5148,150 5127,150 5124 L150 5120L150 5120 L156 5115C160 5112,160 5107,156 5103 C153 5099,150 5099,150 5103 L150 5110L150 5110 L144 5092C141 5082,135 5063,130 5050 C125 5036,116 5002,110 4975 C103 4947,94 4909,89 4890 C84 4870,78 4842,75 4827 L70 4800L75 4795 75 4795 L70 4790 L65 4772C63 4762,56 4728,51 4695 C45 4662,38 4609,35 4577 L30 4520L30 4520 L35 4520C37 4520,40 4513,40 4505 C40 4496,37 4490,35 4490 C32 4490,30 4492,30 4495 L30 4500L30 4500 L25 4500C22 4500,20 4481,20 4458 C19 4435,16 4419,13 4423 C9 4427,5 4430,3 4430 L0 4430L0 4430 L0 4360C0 4321,0 4287,0 4285 C0 4282,0 4102,0 3885 L0 3490L0 3490 L2 3489C3 3489,10 3485,17 3481 C25 3476,35 3437,40 3389 C46 3342,54 3285,60 3262 L70 3220L70 3220 L75 3226C77 3230,80 3225,80 3216 C80 3207,77 3200,75 3200 L70 3200L70 3200 L73 3182C76 3172,82 3144,88 3120 C94 3095,106 3045,115 3010 C124 2974,135 2932,140 2917 L150 2890L150 2890 L155 2896C157 2900,160 2898,160 2891 C160 2885,157 2880,155 2880 L150 2880L150 2880 L170 2820L190 2760L190 2760 L195 2766C197 2770,200 2768,200 2761 C200 2755,197 2750,195 2750 L190 2750L190 2750 L190 2746C190 2744,203 2707,218 2664 C234 2620,252 2574,258 2562 L270 2540L280 2540 L280 2535C280 2532,280 2527,280 2525 L280 2520L270 2520 L310 2430L350 2340L350 2350 L355 2350C357 2350,360 2347,360 2345 L360 2340L350 2340 L370 2300L390 2260L390 2260 L395 2266C397 2270,400 2268,400 2261 C400 2255,397 2250,395 2250 L390 2250L390 2250 L405 2225L420 2200L420 2200 L423 2200C425 2200,429 2197,433 2193 C437 2189,440 2182,440 2178 C440 2173,437 2170,435 2170 L430 2170L430 2170 L450 2135L470 2100L470 2110 L475 2110C477 2110,480 2107,480 2105 L480 2100L470 2100 L470 2097C470 2095,492 2053,521 2004 C549 1955,605 1863,646 1801 C687 1738,755 1642,796 1588 C837 1533,896 1458,928 1421 C959 1384,1025 1309,1075 1255 C1124 1202,1218 1110,1283 1051 C1349 992,1419 931,1439 915 C1460 898,1512 856,1556 821 C1599 786,1698 716,1775 665 C1852 613,1935 561,1960 547 C1984 533,2028 508,2057 491 L2110 460L2105 465 2098 468 L2100 470 L2100 475C2100 477,2104 480,2110 480 C2115 480,2120 475,2120 470 L2120 460L2120 460 L2155 440L2190 420L2190 430 2178 428 L2180 430 L2185 436C2187 440,2190 441,2190 438 C2190 435,2192 430,2195 426 L2200 420L2200 420 L2235 400L2270 380L2270 390 2258 388 L2260 390 L2265 396C2267 400,2270 401,2270 398 C2270 395,2272 390,2275 386 L2280 380L2280 380 L2282 377C2283 376,2300 367,2320 357 C2339 348,2392 324,2437 305 L2520 270L2525 275 2525 275 L2530 270 L2557 258C2572 252,2622 234,2667 218 L2750 190L2755 195 2755 195 L2760 190 L2820 170L2880 150L2880 150 L2880 155C2880 157,2885 160,2891 160 C2898 160,2900 157,2896 155 L2890 150L2890 150 L2897 145C2901 142,2932 133,2965 124 C2998 115,3040 104,3060 100 C3079 95,3118 87,3147 81 L3200 70L3200 70 L3200 75C3200 77,3207 80,3216 80 C3225 80,3230 77,3226 75 L3220 70L3220 70 L3237 64C3247 62,3277 55,3305 50 C3332 45,3383 38,3417 35 L3480 30L3480 30 L3480 35C3480 37,3487 40,3496 40 C3505 40,3510 37,3506 35 L3500 30L3500 30 L3500 25C3500 22,3518 20,3540 20 C3562 20,3580 15,3580 10 L3580 0L3580 0 L3855 0C4006 0,4132 0,4135 0 C4137 0,4209 0,4295 0 L4450 0L4450 0 L4450 9C4450 14,4442 20,4432 23 C4422 26,4430 27,4449 26 C4468 24,4531 29,4589 36 C4647 44,4714 53,4737 56 C4760 59,4780 64,4780 66 L4780 70L4780 70 L4775 70C4772 70,4770 72,4770 75 C4770 77,4776 80,4785 80 C4793 80,4800 77,4800 75 L4800 70L4800 70 L4852 81C4881 87,4920 95,4940 100 C4959 104,5002 115,5035 124 C5068 133,5098 142,5102 145 L5110 150L5110 150 L5103 150C5099 150,5099 153,5103 156 C5107 160,5112 160,5115 156 L5120 150L5120 150 L5124 150C5127 150,5148 156,5172 163 C5195 171,5220 180,5227 183 L5240 190L5245 195 5245 195 L5250 190 L5332 218C5377 234,5427 252,5442 258 L5470 270L5475 275 5475 275 L5480 270 L5562 305C5607 324,5651 343,5660 348 C5668 353,5685 362,5697 368 L5720 380L5725 385 5725 385 L5730 380 L5735 380C5737 380,5740 382,5740 385 L5740 390L5745 395 5745 395 L5750 390 L5775 405L5800 420L5800 420 L5805 430C5808 435,5815 440,5820 440 C5825 440,5830 437,5830 435 L5830 430L5830 430 L5865 450L5900 470L5890 470 L5890 475C5890 477,5892 480,5895 480 L5900 480L5900 470 L5977 511C6020 534,6112 590,6182 635 C6252 681,6355 753,6412 796 C6468 839,6582 933,6665 1006 C6747 1078,6874 1202,6945 1281 C7017 1360,7113 1472,7159 1530 C7204 1587,7284 1698,7335 1775 C7386 1852,7451 1955,7479 2004 C7507 2053,7530 2095,7530 2097 L7530 2100L7520 2100 L7520 2105C7520 2107,7522 2110,7525 2110 L7530 2110L7530 2100 L7550 2135L7570 2170L7570 2170 L7565 2170C7562 2170,7560 2175,7560 2181 C7560 2188,7562 2190,7565 2186 L7570 2180L7570 2180 L7590 2215L7610 2250L7610 2250 L7605 2250C7602 2250,7600 2255,7600 2261 C7600 2268,7602 2270,7605 2266 L7610 2260L7610 2260 L7634 2307C7648 2333,7666 2373,7675 2395 C7684 2417,7700 2456,7710 2482 L7730 2530L7725 2535 7725 2535 L7730 2540 L7741 2562C7747 2574,7765 2620,7781 2664 C7796 2707,7810 2744,7810 2746 L7810 2750L7805 2755 7805 2755 L7810 2760 L7830 2820L7850 2880L7850 2880 L7845 2880C7842 2880,7840 2885,7840 2891 C7840 2898,7842 2900,7845 2896 L7850 2890L7850 2890 L7859 2917C7864 2932,7875 2974,7884 3010 C7893 3045,7904 3090,7909 3110 C7914 3129,7921 3157,7924 3172 L7930 3200L7930 3200 L7925 3200C7922 3200,7920 3207,7920 3216 C7920 3225,7922 3230,7925 3226 L7930 3220L7930 3220 L7939 3262C7945 3285,7953 3343,7959 3390 C7965 3436,7970 3486,7970 3500 C7971 3524,7971 3524,7980 3502 C7985 3490,7991 3480,7994 3480 L8000 3480L8000 3480 L8000 3580C8000 3635,8000 3682,8000 3685 C8000 3687,8000 3858,8000 4065 L8000 4440L8000 4440 L7991 4440C7986 4440,7979 4449,7977 4460 C7974 4471,7975 4480,7980 4480 C7985 4480,7992 4480,7995 4480 L8000 4480L8000 4480 L7997 4512C7995 4530,7995 4547,7997 4551 C7998 4555,8000 4563,8000 4569 L8000 4580L8000 4580 L7992 4585C7988 4588,7979 4583,7972 4573 C7961 4558,7960 4561,7960 4599 C7960 4624,7954 4671,7948 4704 C7942 4737,7935 4768,7933 4772 L7930 4780L7920 4780 L7920 4785C7920 4787,7920 4792,7920 4795 L7920 4800L7930 4800 L7918 4852C7912 4881,7904 4920,7899 4940 C7895 4959,7886 4993,7879 5015 C7873 5037,7865 5067,7863 5082 C7860 5097,7855 5110,7853 5110 L7850 5110L7850 5110 L7850 5103C7850 5099,7847 5099,7843 5103 C7839 5107,7839 5112,7843 5115 L7850 5120L7850 5120 L7830 5180L7810 5240L7805 5245 7805 5245 L7810 5250 L7790 5305L7770 5360L7765 5365 7765 5365 L7770 5370 L7750 5415L7730 5460L7720 5460 L7720 5465C7720 5467,7720 5472,7720 5475 L7720 5480L7730 5480 L7696 5557C7677 5600,7652 5654,7641 5677 L7620 5720L7620 5720 L7613 5725C7609 5727,7604 5730,7601 5730 C7598 5730,7599 5732,7603 5735 L7610 5740L7610 5740 L7575 5810L7540 5880L7540 5880 L7533 5885C7529 5887,7524 5890,7521 5890 C7518 5890,7519 5892,7523 5895 L7530 5900L7531 5901 7530 5890 L7540 5890 L7483 5987C7452 6041,7393 6136,7352 6200 C7311 6263,7249 6350,7216 6394 C7182 6438,7135 6499,7111 6529 C7086 6560,7035 6620,6996 6664 C6956 6707,6904 6765,6880 6793 C6855 6820,6774 6897,6700 6964 C6625 7031,6553 7094,6538 7105 C6524 7116,6467 7159,6413 7200 C6359 7242,6274 7303,6225 7336 C6175 7369,6092 7421,6040 7451 C5987 7482,5922 7519,5895 7534 C5867 7549,5841 7563,5837 7566 L5830 7570L5825 7565 5825 7565 L5820 7570 L5785 7590L5750 7610L5750 7610 L5745 7603C5742 7599,5737 7599,5733 7603 C5729 7607,5729 7610,5733 7610 L5740 7610L5740 7610 L5700 7630L5660 7650L5655 7645 5655 7645 L5650 7650 L5565 7690L5480 7730L5480 7720 L5475 7720C5472 7720,5467 7720,5465 7720 L5460 7720L5460 7730 L5437 7741C5425 7747,5379 7765,5335 7781 C5292 7796,5255 7810,5253 7810 L5250 7810L5245 7805 5245 7805 L5240 7810 L5180 7830L5120 7850L5120 7850 L5120 7845C5120 7842,5116 7840,5111 7840 C5107 7840,5100 7843,5096 7846 C5093 7850,5090 7854,5090 7856 L5090 7860L5090 7860 L5067 7865C5055 7868,5018 7877,4985 7885 C4952 7894,4909 7904,4890 7909 C4870 7914,4842 7921,4827 7924 L4800 7930L4800 7930 L4795 7923C4792 7919,4787 7919,4783 7923 C4779 7927,4779 7930,4783 7930 L4790 7930L4790 7930 L4775 7935L4760 7940L4755 7935 4755 7935 L4750 7940 L4722 7945C4707 7947,4639 7956,4571 7964 C4504 7971,4446 7979,4444 7982 C4441 7984,4440 7989,4440 7993 L4440 8000L4440 8000 L4215 8000C4091 8000,3987 8000,3985 8000 C3982 8000,3890 8000,3780 8000 L3580 8000L3580 8000 L3580 7995C3580 7992,3580 7984,3580 7978 C3580 7970,3565 7969,3535 7973 C3510 7976,3490 7977,3490 7974 L3490 7970M1934 4827 C1932 4820,1887 4691,1835 4540 C1784 4388,1702 4152,1655 4015 C1529 3652,1449 3420,1435 3376 C1422 3335,1406 3320,1375 3320 C1364 3319,1337 3315,1316 3309 C1283 3300,1279 3295,1281 3271 L1285 3245 1582 3242 L1880 3239 1880 3269 C1880 3303,1873 3305,1780 3314 C1664 3325,1657 3328,1662 3358 C1666 3380,1871 3986,1978 4294 C1995 4343,2010 4392,2010 4402 C2010 4439,2029 4417,2058 4347 C2074 4307,2125 4180,2170 4065 C2439 3377,2445 3365,2475 3365 C2503 3365,2505 3370,2615 3660 C2677 3822,2763 4051,2808 4169 C2853 4287,2890 4391,2890 4401 C2890 4436,2908 4419,2928 4367 C2938 4338,2986 4193,3034 4045 C3082 3896,3143 3709,3169 3630 C3246 3396,3263 3339,3258 3334 C3255 3331,3202 3323,3140 3315 C3078 3308,3023 3297,3018 3292 C3011 3285,3011 3275,3019 3261 C3030 3240,3036 3240,3280 3240 C3516 3240,3529 3241,3539 3259 C3545 3269,3550 3281,3550 3284 C3550 3295,3481 3320,3450 3320 C3411 3320,3401 3336,3351 3485 C3308 3612,3108 4199,3008 4490 C2975 4586,2935 4703,2920 4750 C2892 4833,2891 4835,2859 4835 L2826 4835 2738 4605 C2689 4478,2634 4334,2615 4285 C2596 4235,2558 4134,2529 4060 C2437 3815,2426 3790,2419 3790 C2415 3790,2404 3811,2395 3837 C2362 3926,2141 4484,2070 4657 C2003 4821,1998 4830,1970 4835 C1951 4838,1938 4835,1934 4827 M3620 4814 C3607 4807,3606 4763,3618 4756 C3622 4753,3657 4746,3695 4740 C3733 4734,3775 4727,3787 4724 L3810 4719 3810 4025 L3810 3331 3762 3324 C3676 3313,3610 3298,3604 3289 C3601 3284,3604 3270,3610 3259 C3621 3238,3622 3238,4073 3242 C4488 3246,4532 3248,4617 3268 C4903 3333,5070 3481,5139 3731 C5204 3966,5182 4266,5084 4460 C5027 4574,4917 4683,4810 4731 C4638 4810,4554 4820,4045 4820 C3816 4820,3625 4817,3620 4814 M4045 4703 C4036 4692,4039 3351,4047 3347 C4051 3345,4138 3346,4240 3350 C4503 3359,4615 3394,4738 3505 C4885 3639,4938 3806,4927 4097 C4913 4441,4794 4629,4547 4694 C4504 4706,4435 4710,4270 4710 C4149 4710,4047 4707,4045 4703 M5349 4806 C5329 4778,5369 4752,5453 4740 C5496 4734,5536 4727,5541 4724 C5546 4721,5550 4417,5550 4025 L5550 3331 5502 3324 C5362 3306,5332 3293,5351 3258 C5360 3241,5382 3240,5679 3240 C5956 3240,6000 3242,6014 3255 C6048 3289,6024 3303,5915 3314 C5876 3318,5830 3323,5812 3326 L5780 3332 5777 4018 C5775 4467,5778 4707,5785 4712 C5800 4723,6209 4721,6334 4709 C6394 4703,6449 4694,6455 4689 C6461 4684,6470 4654,6473 4622 C6477 4590,6490 4520,6502 4465 L6525 4365 6563 4361 L6602 4358 6596 4496 C6592 4572,6587 4676,6584 4727 L6580 4820 5970 4820 C5464 4820,5358 4817,5349 4806 " />
</g>
<g id="layer103" fill="#000000" fill-rule="evenodd">
<path d="M0 4430 L3 4430C5 4430,9 4427,13 4423 C16 4419,19 4435,20 4458 C20 4481,22 4500,25 4500 L30 4500L30 4510 L30 4520 L35 4577C38 4609,45 4662,51 4695 C56 4728,65 4777,71 4805 C76 4832,84 4870,90 4890 C95 4909,105 4952,113 4985 C121 5018,135 5072,144 5105 C153 5138,176 5210,194 5265 C213 5321,250 5423,278 5491 C305 5560,347 5656,370 5705 C393 5754,413 5796,416 5797 L420 5800L420 5810 425 5815 L430 5820 L435 5837C438 5847,472 5910,511 5978 C550 6045,613 6149,652 6208 C691 6266,763 6368,813 6433 C863 6499,944 6598,993 6653 C1043 6709,1122 6793,1169 6840 C1216 6886,1291 6956,1335 6996 C1379 7035,1439 7086,1470 7111 C1500 7135,1561 7182,1605 7215 C1649 7249,1725 7303,1775 7336 C1824 7369,1881 7406,1901 7418 C1921 7430,1940 7440,1943 7440 L1950 7440L1955 7445 L1960 7450 L2065 7510L2170 7570L2180 7570 L2180 7575C2180 7577,2182 7580,2185 7580 L2190 7580L2200 7580 L2277 7619C2320 7641,2370 7666,2390 7673 C2409 7681,2446 7697,2472 7709 L2520 7730L2530 7730 L2540 7730 L2572 7745C2590 7754,2656 7778,2720 7800 C2783 7821,2862 7846,2895 7855 C2928 7864,2970 7876,2990 7881 C3009 7886,3040 7895,3060 7899 C3079 7904,3117 7913,3145 7919 C3172 7925,3222 7934,3255 7940 C3288 7946,3357 7956,3410 7963 C3462 7970,3521 7974,3542 7972 C3565 7969,3580 7971,3580 7978 C3580 7985,3580 7992,3580 7995 L3580 8000L3580 8000 L3575 8000C3572 8000,2766 8000,1785 8000 L0 8000 0 6215 L0 4430" />
<path d="M5100 7860 L5105 7860C5107 7860,5110 7857,5110 7855 L5110 7850L5120 7850 L5123 7850C5125 7850,5187 7830,5261 7805 C5334 7781,5409 7754,5427 7745 L5460 7730L5470 7730 L5480 7730 L5490 7724C5496 7720,5528 7706,5563 7692 C5597 7679,5683 7639,5755 7605 C5826 7570,5941 7509,6010 7469 C6078 7429,6175 7369,6225 7336 C6274 7303,6359 7242,6413 7200 C6467 7159,6524 7116,6538 7105 C6553 7094,6625 7031,6700 6964 C6774 6897,6869 6804,6910 6759 C6951 6713,7003 6655,7026 6630 C7049 6605,7087 6560,7111 6530 C7135 6499,7191 6427,7235 6368 C7279 6309,7354 6198,7401 6122 C7449 6046,7515 5928,7549 5861 L7610 5740L7615 5735 7620 5730 L7620 5720 L7641 5677C7652 5654,7677 5600,7696 5557 L7730 5480L7730 5470 L7730 5460 L7741 5437C7747 5425,7772 5358,7796 5290 C7819 5221,7846 5138,7855 5105 C7864 5072,7876 5029,7881 5010 C7886 4990,7895 4959,7899 4940 C7904 4920,7912 4881,7918 4852 L7930 4800L7930 4790 L7930 4780 L7933 4772C7935 4768,7942 4737,7948 4704 C7954 4671,7960 4624,7960 4599 C7960 4561,7961 4558,7972 4573 C7979 4583,7988 4588,7992 4585 L8000 4580L8000 4580 L8000 6290L8000 8000 6225 8000 C5248 8000,4447 8000,4445 8000 L4440 8000L4440 8000 L4440 7993C4440 7989,4442 7984,4444 7982 C4447 7979,4488 7973,4537 7969 C4585 7964,4656 7955,4695 7949 C4733 7943,4785 7934,4810 7928 C4834 7923,4870 7914,4890 7909 C4909 7904,4952 7894,4985 7885 C5018 7877,5055 7868,5067 7865 L5090 7860" />
<path d="M1934 4827 C1932 4820,1887 4691,1835 4540 C1784 4388,1702 4152,1655 4015 C1529 3652,1449 3420,1435 3376 C1422 3335,1406 3320,1375 3320 C1364 3319,1337 3315,1316 3309 C1283 3300,1279 3295,1281 3271 L1285 3245 1582 3242 L1880 3239 1880 3269 C1880 3303,1873 3305,1780 3314 C1664 3325,1657 3328,1662 3358 C1666 3380,1871 3986,1978 4294 C1995 4343,2010 4392,2010 4402 C2010 4439,2029 4417,2058 4347 C2074 4307,2125 4180,2170 4065 C2439 3377,2445 3365,2475 3365 C2503 3365,2505 3370,2615 3660 C2677 3822,2763 4051,2808 4169 C2853 4287,2890 4391,2890 4401 C2890 4436,2908 4419,2928 4367 C2938 4338,2986 4193,3034 4045 C3082 3896,3143 3709,3169 3630 C3246 3396,3263 3339,3258 3334 C3255 3331,3202 3323,3140 3315 C3078 3308,3023 3297,3018 3292 C3011 3285,3011 3275,3019 3261 C3030 3240,3036 3240,3280 3240 C3516 3240,3529 3241,3539 3259 C3545 3269,3550 3281,3550 3284 C3550 3295,3481 3320,3450 3320 C3411 3320,3401 3336,3351 3485 C3308 3612,3108 4199,3008 4490 C2975 4586,2935 4703,2920 4750 C2892 4833,2891 4835,2859 4835 L2826 4835 2738 4605 C2689 4478,2634 4334,2615 4285 C2596 4235,2558 4134,2529 4060 C2437 3815,2426 3790,2419 3790 C2415 3790,2404 3811,2395 3837 C2362 3926,2141 4484,2070 4657 C2003 4821,1998 4830,1970 4835 C1951 4838,1938 4835,1934 4827 " />
<path d="M3620 4814 C3607 4807,3606 4763,3618 4756 C3622 4753,3657 4746,3695 4740 C3733 4734,3775 4727,3787 4724 L3810 4719 3810 4025 L3810 3331 3762 3324 C3676 3313,3610 3298,3604 3289 C3601 3284,3604 3270,3610 3259 C3621 3238,3622 3238,4073 3242 C4488 3246,4532 3248,4617 3268 C4903 3333,5070 3481,5139 3731 C5204 3966,5182 4266,5084 4460 C5027 4574,4917 4683,4810 4731 C4638 4810,4554 4820,4045 4820 C3816 4820,3625 4817,3620 4814 M4045 4703 C4036 4692,4039 3351,4047 3347 C4051 3345,4138 3346,4240 3350 C4503 3359,4615 3394,4738 3505 C4885 3639,4938 3806,4927 4097 C4913 4441,4794 4629,4547 4694 C4504 4706,4435 4710,4270 4710 C4149 4710,4047 4707,4045 4703 " />
<path d="M5349 4806 C5329 4778,5369 4752,5453 4740 C5496 4734,5536 4727,5541 4724 C5546 4721,5550 4417,5550 4025 L5550 3331 5502 3324 C5362 3306,5332 3293,5351 3258 C5360 3241,5382 3240,5679 3240 C5956 3240,6000 3242,6014 3255 C6048 3289,6024 3303,5915 3314 C5876 3318,5830 3323,5812 3326 L5780 3332 5777 4018 C5775 4467,5778 4707,5785 4712 C5800 4723,6209 4721,6334 4709 C6394 4703,6449 4694,6455 4689 C6461 4684,6470 4654,6473 4622 C6477 4590,6490 4520,6502 4465 L6525 4365 6563 4361 L6602 4358 6596 4496 C6592 4572,6587 4676,6584 4727 L6580 4820 5970 4820 C5464 4820,5358 4817,5349 4806 " />
<path d="M8000 4450 L8000 4455C8000 4457,8000 4462,8000 4465 L8000 4470L8000 4480 L7995 4480C7992 4480,7985 4480,7980 4480 C7975 4480,7974 4471,7977 4460 C7979 4449,7986 4440,7991 4440 L8000 4440" />
<path d="M7930 3210 L7930 3200 L7925 3187C7923 3180,7921 3166,7920 3155 C7920 3145,7915 3122,7910 3105 C7904 3088,7893 3048,7885 3015 C7877 2982,7864 2930,7856 2900 C7848 2869,7825 2797,7806 2740 C7788 2682,7749 2576,7720 2505 C7692 2433,7642 2320,7610 2252 C7577 2185,7523 2082,7489 2022 C7455 1963,7386 1852,7335 1775 C7284 1698,7204 1587,7159 1530 C7113 1472,7017 1360,6945 1281 C6874 1202,6747 1078,6665 1006 C6582 933,6468 839,6412 796 C6355 753,6252 681,6182 635 C6112 590,6004 525,5942 491 L5830 430L5820 430 L5820 425C5820 422,5817 420,5815 420 L5810 420L5800 420 L5797 416C5796 413,5754 393,5705 369 C5655 346,5550 301,5470 269 C5390 238,5273 196,5210 176 C5146 156,5068 133,5035 124 C5002 115,4959 104,4940 100 C4920 95,4881 87,4852 81 L4800 70L4790 70 L4780 70 L4780 66C4780 64,4760 59,4737 56 C4714 53,4647 44,4589 36 C4531 29,4468 24,4449 26 C4430 27,4422 26,4432 23 C4442 20,4450 14,4450 9 L4450 0L4450 0 L6225 0L8000 0 8000 1735 C8000 2689,8000 3472,8000 3475 L8000 3480L8000 3480 L7994 3480C7991 3480,7985 3490,7980 3502 C7971 3524,7971 3524,7970 3500 C7970 3486,7965 3436,7959 3390 C7953 3343,7945 3285,7939 3262 L7930 3220" />
<path d="M0 3490 L0 3485C0 3482,0 2697,0 1740 L0 0 1790 0 L3580 0L3580 0 L3580 10C3580 15,3562 20,3540 20 C3518 20,3500 22,3500 25 L3500 30L3490 30 L3480 30 L3417 35C3383 38,3332 45,3305 50 C3277 55,3247 62,3237 64 L3220 70L3210 70 L3200 70 L3147 81C3118 87,3079 95,3060 100 C3040 104,2989 117,2945 129 C2902 141,2823 164,2770 181 C2718 198,2612 237,2535 267 C2458 297,2331 352,2254 390 C2176 427,2089 472,2059 490 C2029 508,1984 533,1960 547 C1935 561,1852 613,1775 665 C1698 716,1599 786,1556 821 C1512 856,1460 898,1439 915 C1419 931,1349 992,1283 1051 C1218 1110,1124 1202,1075 1255 C1025 1309,959 1384,928 1421 C896 1458,837 1533,796 1588 C755 1642,687 1738,646 1801 C605 1863,540 1971,501 2040 C461 2108,430 2166,430 2167 L430 2170L430 2180 L425 2180C422 2180,420 2182,420 2185 L420 2190L420 2200 L382 2272C361 2312,333 2372,320 2405 C307 2438,290 2477,283 2492 L270 2520L270 2530 L270 2540 L254 2572C245 2590,220 2659,198 2725 C176 2791,151 2869,143 2900 C135 2930,121 2982,113 3015 C105 3048,94 3095,88 3120 C82 3144,76 3172,73 3182 L70 3200L70 3210 L70 3220 L60 3262C54 3285,46 3342,40 3389 C35 3437,25 3476,17 3481 C10 3485,3 3489,2 3489 L0 3490" />
</g>

</svg>
